<?xml version="1.0" standalone="no"?>
<!DOCTYPE svg PUBLIC "-//W3C//DTD SVG 20010904//EN"
 "http://www.w3.org/TR/2001/REC-SVG-20010904/DTD/svg10.dtd">
<svg version="1.0" xmlns="http://www.w3.org/2000/svg"
 width="726.000000pt" height="679.000000pt" viewBox="0 0 726.000000 679.000000"
 preserveAspectRatio="xMidYMid meet">
<metadata>
Created by potrace 1.16, written by Peter Selinger 2001-2019
</metadata>
<g transform="translate(0.000000,679.000000) scale(0.100000,-0.100000)"
fill="#000000" stroke="none">
<path d="M3355 6715 c-198 -27 -412 -93 -589 -182 -118 -59 -288 -167 -356
-226 -136 -117 -175 -155 -250 -242 -322 -376 -485 -840 -467 -1330 10 -269
53 -448 178 -753 21 -50 5 -66 -77 -74 -736 -78 -1363 -559 -1618 -1241 -233
-622 -133 -1315 265 -1840 369 -487 931 -767 1537 -767 357 0 627 71 957 250
203 110 429 311 592 525 44 57 83 100 93 100 10 0 49 -43 92 -100 80 -106 229
-264 313 -330 27 -22 57 -46 65 -54 38 -36 220 -146 332 -200 465 -224 994
-253 1484 -80 102 36 262 111 349 164 174 106 404 311 526 470 293 381 440
867 401 1327 -41 479 -228 885 -561 1219 -310 310 -709 504 -1140 553 -140 15
-143 20 -90 140 22 49 56 141 75 205 246 811 -73 1693 -781 2162 -244 162
-547 274 -830 308 -118 14 -386 12 -500 -4z m609 -195 c54 -11 142 -35 195
-52 113 -36 335 -140 406 -190 303 -216 481 -416 621 -698 248 -498 244 -1068
-11 -1573 -60 -117 -66 -153 -35 -204 29 -48 62 -59 190 -67 385 -22 714 -144
1005 -371 92 -72 258 -241 329 -335 159 -212 277 -493 322 -765 27 -160 25
-420 -5 -578 -77 -418 -295 -788 -621 -1058 -207 -171 -526 -317 -800 -365
-145 -26 -475 -26 -605 -1 -276 55 -549 173 -746 323 -155 118 -362 349 -452
505 -42 71 -69 92 -130 97 -46 4 -57 1 -84 -22 -17 -15 -44 -48 -59 -74 -121
-209 -347 -442 -567 -586 -148 -96 -400 -196 -597 -238 -141 -29 -438 -36
-590 -13 -683 101 -1248 599 -1434 1262 -47 169 -60 265 -60 468 0 215 15 319
70 501 83 277 211 495 414 708 320 335 713 512 1197 542 128 7 165 23 189 79
22 53 18 74 -31 168 -141 269 -200 511 -200 822 0 256 31 424 120 646 94 234
211 408 399 594 151 149 271 236 451 324 181 89 323 135 514 166 132 22 476
13 605 -15z"/>
<path d="M3415 6249 c-611 -88 -1104 -559 -1227 -1171 -32 -158 -31 -397 0
-550 58 -282 181 -519 374 -722 211 -223 464 -366 771 -433 119 -26 457 -26
577 1 289 63 532 196 740 405 215 216 342 455 402 753 29 146 30 385 4 528
-117 617 -598 1086 -1216 1185 -102 16 -325 18 -425 4z"/>
<path d="M1857 3440 c-251 -23 -481 -105 -696 -248 -117 -78 -310 -270 -389
-390 -218 -328 -296 -718 -221 -1097 116 -582 556 -1023 1149 -1151 66 -14
129 -19 280 -19 169 0 209 3 299 23 581 130 1005 557 1133 1139 32 146 32 425
-1 578 -105 498 -450 901 -926 1080 -189 71 -428 103 -628 85z"/>
<path d="M5107 3438 c-109 -11 -286 -55 -392 -97 -445 -177 -783 -582 -886
-1061 -33 -151 -33 -430 -1 -577 38 -175 100 -334 182 -468 215 -353 562 -594
980 -682 132 -27 420 -24 560 6 528 116 936 485 1099 993 45 143 63 272 63
443 -1 241 -41 416 -146 630 -229 465 -663 764 -1185 815 -111 11 -153 11
-274 -2z"/>
</g>
</svg>
